<?xml version="1.0" encoding="UTF-8"?>
<svg xmlns="http://www.w3.org/2000/svg" xmlns:xlink="http://www.w3.org/1999/xlink" width="120px" height="120px" viewBox="0 0 120 120" version="1.1">
<g id="surface1">
<path style=" stroke:none;fill-rule:nonzero;fill:rgb(0%,0%,0%);fill-opacity:1;" d="M 60 60 L 75 60 L 75 75 L 60 75 Z M 60 60 "/>
<path style=" stroke:none;fill-rule:nonzero;fill:rgb(0%,0%,0%);fill-opacity:1;" d="M 45 60 L 45 45 L 60 45 L 60 60 Z M 45 60 "/>
<path style=" stroke:none;fill-rule:nonzero;fill:rgb(0%,0%,0%);fill-opacity:1;" d="M 45 60 L 45 75 L 30 75 L 30 60 Z M 45 60 "/>
<path style=" stroke:none;fill-rule:nonzero;fill:rgb(0%,0%,0%);fill-opacity:1;" d="M 90 30 L 75 30 L 75 45 L 90 45 Z M 90 30 "/>
<path style=" stroke:none;fill-rule:evenodd;fill:rgb(0%,0%,0%);fill-opacity:1;" d="M 0 0 L 0 120 L 120 120 L 120 0 Z M 105 105 L 75 105 L 75 90 L 90 90 L 90 75 L 105 75 Z M 75 75 L 90 75 L 90 60 L 105 60 L 105 15 L 15 15 L 15 75 L 30 75 L 30 90 L 15 90 L 15 105 L 60 105 L 60 90 L 75 90 Z M 75 75 "/>
</g>
</svg>
